# File created by Blade
# Date/Time:  Wed Jan 21 17:41:14 2015
# Frame Rate: 120.000 fps
#------------------------------------------------------
:FULLY-SPECIFIED
:DEGREES
504
root 11.147909 35.817702 -23.740496 -284.491353 88.165217 -369.042680
Spine 56.981330 0.338566 -1.776157
Head -53.661625 1.649227 3.612480
LeftShoulder 2.015284 -55.677284 38.722198
LeftArm 50.249179 -20.094516 -0.551546
LeftForeArm -11.239503 0.000000 -3.918883
LeftHand -1.412797 -0.000000 13.684949
LeftHandThumb1 -26.253704 0.000000 33.147579
RightShoulder 3.839649 17.137434 -41.556748
RightArm 47.157012 64.211066 5.408537
RightForeArm -8.483005 -0.000000 5.977577
RightHand -6.388548 -0.000000 -12.619670
RightHandThumb1 -24.326973 -0.000000 -32.862282
LeftUpLeg -86.321653 -1.771709 -5.607959
LeftLeg -0.556319 -0.000000 0.000000
LeftFoot -12.735367 29.151933 -8.397221
LeftToeBase 21.267714 -0.000000 -0.000000
RightUpLeg -86.850315 0.650353 3.215459
RightLeg -1.273177 -0.000000 0.000000
RightFoot -11.434542 -24.102284 9.496049
RightToeBase 23.119410 -0.000000 -0.000000
505
root 11.260542 35.824270 -23.724646 -285.618091 88.190556 -370.425475
Spine 56.866569 0.354357 -1.793947
Head -53.588285 1.596572 3.580085
LeftShoulder 1.988070 -55.616881 38.889215
LeftArm 50.073747 -20.278279 -0.435027
LeftForeArm -11.479704 0.000000 -3.947732
LeftHand -1.438563 -0.000000 13.520663
LeftHandThumb1 -26.253704 0.000000 33.147579
RightShoulder 3.800396 17.230830 -41.654781
RightArm 47.539970 64.353824 5.915285
RightForeArm -8.622174 0.000000 5.905194
RightHand -6.272527 -0.000000 -12.401503
RightHandThumb1 -24.326973 -0.000000 -32.862282
LeftUpLeg -86.433781 -1.721619 -5.598107
LeftLeg -0.480743 -0.000000 0.000000
LeftFoot -12.941090 29.119772 -8.458576
LeftToeBase 21.214303 -0.000000 -0.000000
RightUpLeg -86.912400 0.710814 3.276801
RightLeg -1.269782 -0.000000 0.000000
RightFoot -11.603960 -24.062365 9.581015
RightToeBase 23.086990 -0.000000 -0.000000
506
root 11.373045 35.830617 -23.709216 -286.688606 88.256975 -371.755348
Spine 56.754728 0.373744 -1.722129
Head -53.567512 1.581960 3.488832
LeftShoulder 1.969201 -55.626868 39.059489
LeftArm 49.876971 -20.457080 -0.392110
LeftForeArm -11.699711 -0.000000 -3.909954
LeftHand -1.497050 0.000000 13.270050
LeftHandThumb1 -26.253704 0.000000 33.147579
RightShoulder 3.815647 17.307114 -41.734783
RightArm 47.363345 64.376525 5.852910
RightForeArm -8.672597 -0.000000 5.908325
RightHand -6.261442 -0.000000 -11.930638
RightHandThumb1 -24.326973 -0.000000 -32.862282
LeftUpLeg -86.536455 -1.694870 -5.421623
LeftLeg -0.444964 -0.000000 0.000000
LeftFoot -13.148364 29.191414 -8.593249
LeftToeBase 21.211602 -0.000000 -0.000000
RightUpLeg -86.964585 0.758070 3.337588
RightLeg -1.284949 -0.000000 0.000000
RightFoot -11.778088 -24.059314 9.657484
RightToeBase 23.052878 -0.000000 -0.000000
507
root 11.497823 35.836432 -23.692776 -287.889104 88.271779 -373.154792
Spine 56.748640 0.395593 -1.740940
Head -53.565325 1.537583 3.436360
LeftShoulder 1.894986 -55.681625 39.313945
LeftArm 49.586657 -20.577004 -0.309716
LeftForeArm -11.957586 0.000000 -3.842549
LeftHand -1.493533 -0.000000 12.805985
LeftHandThumb1 -26.253704 0.000000 33.147579
RightShoulder 3.865357 17.411007 -41.781886
RightArm 46.543634 64.143781 5.054316
RightForeArm -8.112454 0.000000 5.913723
RightHand -6.285654 -0.000000 -11.893453
RightHandThumb1 -24.326973 -0.000000 -32.862282
LeftUpLeg -86.563833 -1.641771 -5.424110
LeftLeg -0.401475 -0.000000 0.000000
LeftFoot -13.354942 29.228245 -8.599742
LeftToeBase 21.296384 -0.000000 -0.000000
RightUpLeg -86.951932 0.809285 3.459980
RightLeg -1.275024 -0.000000 0.000000
RightFoot -11.964211 -23.955655 9.671622
RightToeBase 23.111760 -0.000000 -0.000000
508
root 11.609993 35.843017 -23.678820 -288.702054 88.323354 -374.242257
Spine 56.609708 0.409732 -1.674945
Head -53.513791 1.486677 3.353144
LeftShoulder 1.978422 -55.646399 39.405509
LeftArm 49.329426 -20.767385 -0.178187
LeftForeArm -12.127381 0.000000 -3.838399
LeftHand -1.478808 -0.000000 12.385923
LeftHandThumb1 -26.253704 0.000000 33.147579
RightShoulder 3.817767 17.317205 -41.922613
RightArm 46.915749 64.474247 5.625785
RightForeArm -8.240654 -0.000000 5.925335
RightHand -6.425312 -0.000000 -11.401341
RightHandThumb1 -24.326973 -0.000000 -32.862282
LeftUpLeg -86.693149 -1.620309 -5.320665
LeftLeg -0.340381 -0.000000 0.000000
LeftFoot -13.504854 29.238511 -8.677768
LeftToeBase 21.168491 -0.000000 -0.000000
RightUpLeg -87.035799 0.845348 3.539896
RightLeg -1.264694 -0.000000 0.000000
RightFoot -12.129709 -23.906093 9.813304
RightToeBase 22.984903 -0.000000 -0.000000
509
root 11.731548 35.848044 -23.660543 -290.111218 88.333023 -375.880098
Spine 56.565415 0.430080 -1.711055
Head -53.508382 1.457543 3.314199
LeftShoulder 1.890176 -55.654846 39.651914
LeftArm 49.068019 -20.916544 -0.088608
LeftForeArm -12.330080 -0.000000 -3.812333
LeftHand -1.507293 -0.000000 11.903661
LeftHandThumb1 -26.253704 0.000000 33.147579
RightShoulder 3.813013 17.467789 -42.022192
RightArm 47.107973 64.548613 5.962849
RightForeArm -8.154090 -0.000000 5.859777
RightHand -6.378658 0.000000 -11.275216
RightHandThumb1 -24.326973 -0.000000 -32.862282
LeftUpLeg -86.758517 -1.555760 -5.279332
LeftLeg -0.267684 -0.000000 0.000000
LeftFoot -13.729330 29.194735 -8.741328
LeftToeBase 21.167231 -0.000000 -0.000000
RightUpLeg -87.060538 0.912998 3.601943
RightLeg -1.252021 -0.000000 0.000000
RightFoot -12.327404 -23.849985 9.935555
RightToeBase 22.961947 -0.000000 -0.000000
510
root 11.854308 35.853639 -23.643987 -291.252273 88.381174 -377.288715
Spine 56.458698 0.445454 -1.665107
Head -53.506852 1.472803 3.247634
LeftShoulder 1.877063 -55.646453 39.829521
LeftArm 48.822032 -21.107821 -0.065866
LeftForeArm -12.553176 -0.000000 -3.730821
LeftHand -1.473764 -0.000000 11.660535
LeftHandThumb1 -26.253704 0.000000 33.147579
RightShoulder 3.849413 17.556485 -42.069372
RightArm 46.992685 64.571145 5.944448
RightForeArm -7.955885 -0.000000 5.858568
RightHand -6.431806 -0.000000 -11.065454
RightHandThumb1 -24.326973 -0.000000 -32.862282
LeftUpLeg -86.880723 -1.524735 -5.149099
LeftLeg -0.168163 -0.000000 0.000000
LeftFoot -13.979032 29.214190 -8.889079
LeftToeBase 21.116071 -0.000000 -0.000000
RightUpLeg -87.117745 0.956490 3.759464
RightLeg -1.240251 -0.000000 0.000000
RightFoot -12.505605 -23.747368 9.971910
RightToeBase 22.934759 -0.000000 -0.000000
511
root 11.982285 35.857046 -23.622329 -293.270224 88.410452 -379.522071
Spine 56.419571 0.499386 -1.628545
Head -53.488244 1.402008 3.243637
LeftShoulder 1.866240 -55.704151 40.034389
LeftArm 48.548823 -21.181023 -0.026503
LeftForeArm -12.775617 -0.000000 -3.697051
LeftHand -1.517410 -0.000000 11.267318
LeftHandThumb1 -26.253704 0.000000 33.147579
RightShoulder 3.875439 17.635481 -42.138694
RightArm 47.028327 64.664600 6.103354
RightForeArm -7.787477 -0.000000 5.829549
RightHand -6.456778 -0.000000 -10.885130
RightHandThumb1 -24.326973 -0.000000 -32.862282
LeftUpLeg -86.922461 -1.452159 -5.036901
LeftLeg -0.113347 -0.000000 0.000000
LeftFoot -14.204555 29.253532 -8.921455
LeftToeBase 21.142917 -0.000000 -0.000000
RightUpLeg -87.096810 1.031989 3.877884
RightLeg -1.268971 -0.000000 0.000000
RightFoot -12.668430 -23.664060 10.085679
RightToeBase 22.805036 -0.000000 -0.000000
512
root 12.102427 35.861351 -23.604397 -295.076100 88.449003 -381.612969
Spine 56.277030 0.524348 -1.606257
Head -53.458254 1.412376 3.220862
LeftShoulder 1.799925 -55.661789 40.264928
LeftArm 48.357842 -21.339366 -0.055970
LeftForeArm -13.077296 -0.000000 -3.721837
LeftHand -1.354894 -0.000000 11.010547
LeftHandThumb1 -26.253704 0.000000 33.147579
RightShoulder 3.917856 17.761049 -42.188271
RightArm 47.174392 64.725495 6.402116
RightForeArm -7.623625 0.000000 5.844310
RightHand -6.425344 -0.000000 -10.825540
RightHandThumb1 -24.326973 -0.000000 -32.862282
LeftUpLeg -87.079315 -1.401472 -4.892822
LeftLeg 0.009733 -0.000000 -0.000000
LeftFoot -14.449121 29.284998 -9.015071
LeftToeBase 21.115217 -0.000000 -0.000000
RightUpLeg -87.189005 1.102073 3.963621
RightLeg -1.228978 -0.000000 0.000000
RightFoot -12.872064 -23.659090 10.089340
RightToeBase 22.906132 -0.000000 -0.000000
513
root 12.225851 35.865807 -23.587512 -296.240701 88.439956 -383.053499
Spine 56.149762 0.573181 -1.656878
Head -53.412162 1.455661 3.261648
LeftShoulder 1.728492 -55.579604 40.508625
LeftArm 48.163407 -21.501766 -0.039986
LeftForeArm -13.321658 -0.000000 -3.709668
LeftHand -1.229306 -0.000000 10.894767
LeftHandThumb1 -26.253704 0.000000 33.147579
RightShoulder 3.982228 17.921894 -42.214369
RightArm 47.034581 64.664995 6.413257
RightForeArm -7.381388 0.000000 5.831215
RightHand -6.461675 -0.000000 -10.689994
RightHandThumb1 -24.326973 -0.000000 -32.862282
LeftUpLeg -87.189407 -1.346461 -4.813350
LeftLeg 0.079349 -0.000000 -0.000000
LeftFoot -14.671088 29.305324 -9.106922
LeftToeBase 21.093081 -0.000000 -0.000000
RightUpLeg -87.275490 1.173590 3.989965
RightLeg -1.186600 -0.000000 0.000000
RightFoot -13.054520 -23.623706 10.212310
RightToeBase 22.765811 -0.000000 -0.000000
514
root 12.354437 35.869400 -23.570032 -297.816317 88.475076 -384.862777
Spine 56.092332 0.618981 -1.577176
Head -53.408368 1.410867 3.205302
LeftShoulder 1.782479 -55.673238 40.601370
LeftArm 47.950588 -21.539066 0.017551
LeftForeArm -13.501048 -0.000000 -3.679303
LeftHand -1.250303 -0.000000 10.736743
LeftHandThumb1 -26.253704 0.000000 33.147579
RightShoulder 4.022387 17.942451 -42.291249
RightArm 46.790178 64.712953 6.278492
RightForeArm -7.147410 0.000000 5.798327
RightHand -6.520516 -0.000000 -10.546697
RightHandThumb1 -24.326973 -0.000000 -32.862282
LeftUpLeg -87.255044 -1.303032 -4.681481
LeftLeg 0.150632 -0.000000 -0.000000
LeftFoot -14.897877 29.343993 -9.201552
LeftToeBase 21.066458 -0.000000 -0.000000
RightUpLeg -87.303564 1.228589 4.082476
RightLeg -1.147418 -0.000000 0.000000
RightFoot -13.250192 -23.580550 10.263366
RightToeBase 22.693515 -0.000000 -0.000000
515
root 12.488341 35.872431 -23.549537 -299.100775 88.492071 -386.362296
Spine 56.068430 0.677799 -1.546400
Head -53.404835 1.416709 3.193926
LeftShoulder 1.788523 -55.761961 40.764037
LeftArm 47.738756 -21.566228 0.063205
LeftForeArm -13.700686 -0.000000 -3.661325
LeftHand -1.217464 -0.000000 10.525142
LeftHandThumb1 -26.253704 0.000000 33.147579
RightShoulder 4.040306 18.016534 -42.332891
RightArm 46.696965 64.736216 6.289162
RightForeArm -6.901723 -0.000000 5.750778
RightHand -6.453385 -0.000000 -10.509979
RightHandThumb1 -24.326973 -0.000000 -32.862282
LeftUpLeg -87.279536 -1.245026 -4.585889
LeftLeg 0.205458 -0.000000 -0.000000
LeftFoot -15.105209 29.343994 -9.259760
LeftToeBase 21.033928 -0.000000 -0.000000
RightUpLeg -87.291267 1.285662 4.150912
RightLeg -1.137591 -0.000000 0.000000
RightFoot -13.450390 -23.537212 10.291355
RightToeBase 22.711588 -0.000000 -0.000000
516
root 12.625625 35.875281 -23.529638 -301.194939 88.535763 -388.651208
Spine 56.076490 0.748950 -1.403201
Head -53.402453 1.307719 3.111131
LeftShoulder 1.922678 -55.999917 40.753600
LeftArm 47.542620 -21.561873 0.062765
LeftForeArm -13.772359 0.000000 -3.580020
LeftHand -1.245188 -0.000000 10.335909
LeftHandThumb1 -26.253704 0.000000 33.147579
RightShoulder 4.035730 17.958337 -42.438818
RightArm 46.690581 64.928240 6.400195
RightForeArm -6.758680 -0.000000 5.688367
RightHand -6.422046 0.000000 -10.528725
RightHandThumb1 -24.326973 -0.000000 -32.862282
LeftUpLeg -87.289723 -1.185731 -4.443853
LeftLeg 0.272967 -0.000000 -0.000000
LeftFoot -15.333176 29.356984 -9.353518
LeftToeBase 20.987191 -0.000000 -0.000000
RightUpLeg -87.245045 1.341437 4.313991
RightLeg -1.135640 -0.000000 0.000000
RightFoot -13.649084 -23.437646 10.357517
RightToeBase 22.677160 -0.000000 -0.000000
